<mxfile host="Electron" agent="Mozilla/5.0 (Windows NT 10.0; Win64; x64) AppleWebKit/537.36 (KHTML, like Gecko) draw.io/26.0.4 Chrome/128.0.6613.186 Electron/32.2.5 Safari/537.36" version="26.0.4">
  <diagram name="Page-1" id="qw0QJcA9nq3hnzf7DGTu">
    <mxGraphModel dx="2049" dy="1206" grid="1" gridSize="10" guides="1" tooltips="1" connect="1" arrows="1" fold="1" page="1" pageScale="1" pageWidth="850" pageHeight="1100" math="0" shadow="0">
      <root>
        <mxCell id="0" />
        <mxCell id="1" parent="0" />
        <mxCell id="omFaNXMol-G434oiKDQh-31" value="" style="rounded=1;whiteSpace=wrap;html=1;arcSize=6;fillColor=none;dashed=1;" parent="1" vertex="1">
          <mxGeometry x="920" y="220" width="700" height="630" as="geometry" />
        </mxCell>
        <mxCell id="omFaNXMol-G434oiKDQh-29" value="" style="rounded=1;whiteSpace=wrap;html=1;arcSize=6;fillColor=none;dashed=1;" parent="1" vertex="1">
          <mxGeometry x="40" y="220" width="830" height="630" as="geometry" />
        </mxCell>
        <mxCell id="omFaNXMol-G434oiKDQh-1" value="&lt;h1&gt;&lt;font style=&quot;font-size: 48px;&quot;&gt;Integration Model &lt;/font&gt;&lt;font style=&quot;font-weight: normal; font-size: 28px;&quot;&gt;(How two tables are related)&lt;/font&gt;&lt;/h1&gt;" style="text;html=1;align=center;verticalAlign=middle;whiteSpace=wrap;rounded=0;" parent="1" vertex="1">
          <mxGeometry x="40" y="40" width="770" height="80" as="geometry" />
        </mxCell>
        <mxCell id="omFaNXMol-G434oiKDQh-2" value="crm_cust_info" style="swimlane;fontStyle=0;childLayout=stackLayout;horizontal=1;startSize=30;horizontalStack=0;resizeParent=1;resizeParentMax=0;resizeLast=0;collapsible=1;marginBottom=0;whiteSpace=wrap;html=1;rounded=1;fillColor=#dae8fc;strokeColor=#6c8ebf;fontSize=26;" parent="1" vertex="1">
          <mxGeometry x="540" y="570" width="300" height="180" as="geometry" />
        </mxCell>
        <mxCell id="omFaNXMol-G434oiKDQh-3" value="cst_id" style="text;strokeColor=none;fillColor=none;align=left;verticalAlign=middle;spacingLeft=4;spacingRight=4;overflow=hidden;points=[[0,0.5],[1,0.5]];portConstraint=eastwest;rotatable=0;whiteSpace=wrap;html=1;fontSize=40;" parent="omFaNXMol-G434oiKDQh-2" vertex="1">
          <mxGeometry y="30" width="300" height="50" as="geometry" />
        </mxCell>
        <mxCell id="omFaNXMol-G434oiKDQh-19" value="cst_key" style="text;strokeColor=none;fillColor=none;align=left;verticalAlign=middle;spacingLeft=4;spacingRight=4;overflow=hidden;points=[[0,0.5],[1,0.5]];portConstraint=eastwest;rotatable=0;whiteSpace=wrap;html=1;fontSize=40;" parent="omFaNXMol-G434oiKDQh-2" vertex="1">
          <mxGeometry y="80" width="300" height="50" as="geometry" />
        </mxCell>
        <mxCell id="omFaNXMol-G434oiKDQh-37" value="CUSTOMER" style="text;strokeColor=#82b366;fillColor=#d5e8d4;align=center;verticalAlign=middle;spacingLeft=4;spacingRight=4;overflow=hidden;points=[[0,0.5],[1,0.5]];portConstraint=eastwest;rotatable=0;whiteSpace=wrap;html=1;fontSize=30;rounded=0;fontStyle=1" parent="omFaNXMol-G434oiKDQh-2" vertex="1">
          <mxGeometry y="130" width="300" height="50" as="geometry" />
        </mxCell>
        <mxCell id="omFaNXMol-G434oiKDQh-6" value="&lt;font style=&quot;font-size: 20px;&quot;&gt;Customer Information&lt;/font&gt;" style="text;html=1;align=center;verticalAlign=middle;whiteSpace=wrap;rounded=0;" parent="1" vertex="1">
          <mxGeometry x="580" y="530" width="220" height="40" as="geometry" />
        </mxCell>
        <mxCell id="omFaNXMol-G434oiKDQh-7" value="crm_prd_info" style="swimlane;fontStyle=0;childLayout=stackLayout;horizontal=1;startSize=30;horizontalStack=0;resizeParent=1;resizeParentMax=0;resizeLast=0;collapsible=1;marginBottom=0;whiteSpace=wrap;html=1;rounded=1;fillColor=#dae8fc;strokeColor=#6c8ebf;fontSize=26;" parent="1" vertex="1">
          <mxGeometry x="540" y="340" width="300" height="130" as="geometry" />
        </mxCell>
        <mxCell id="omFaNXMol-G434oiKDQh-8" value="prd_key" style="text;strokeColor=none;fillColor=none;align=left;verticalAlign=middle;spacingLeft=4;spacingRight=4;overflow=hidden;points=[[0,0.5],[1,0.5]];portConstraint=eastwest;rotatable=0;whiteSpace=wrap;html=1;fontSize=40;" parent="omFaNXMol-G434oiKDQh-7" vertex="1">
          <mxGeometry y="30" width="300" height="50" as="geometry" />
        </mxCell>
        <mxCell id="omFaNXMol-G434oiKDQh-36" value="PRODUCT" style="text;strokeColor=#b85450;fillColor=#f8cecc;align=center;verticalAlign=middle;spacingLeft=4;spacingRight=4;overflow=hidden;points=[[0,0.5],[1,0.5]];portConstraint=eastwest;rotatable=0;whiteSpace=wrap;html=1;fontSize=30;rounded=0;fontStyle=1" parent="omFaNXMol-G434oiKDQh-7" vertex="1">
          <mxGeometry y="80" width="300" height="50" as="geometry" />
        </mxCell>
        <mxCell id="omFaNXMol-G434oiKDQh-9" value="&lt;font style=&quot;font-size: 20px;&quot;&gt;Current &amp;amp; History Product Information&lt;/font&gt;" style="text;html=1;align=center;verticalAlign=middle;whiteSpace=wrap;rounded=0;" parent="1" vertex="1">
          <mxGeometry x="500" y="300" width="380" height="40" as="geometry" />
        </mxCell>
        <mxCell id="omFaNXMol-G434oiKDQh-10" value="crm_sales_details" style="swimlane;fontStyle=0;childLayout=stackLayout;horizontal=1;startSize=30;horizontalStack=0;resizeParent=1;resizeParentMax=0;resizeLast=0;collapsible=1;marginBottom=0;whiteSpace=wrap;html=1;rounded=1;fillColor=#dae8fc;strokeColor=#6c8ebf;fontSize=26;" parent="1" vertex="1">
          <mxGeometry x="70" y="470" width="300" height="180" as="geometry" />
        </mxCell>
        <mxCell id="omFaNXMol-G434oiKDQh-11" value="prd_key" style="text;strokeColor=none;fillColor=none;align=left;verticalAlign=middle;spacingLeft=4;spacingRight=4;overflow=hidden;points=[[0,0.5],[1,0.5]];portConstraint=eastwest;rotatable=0;whiteSpace=wrap;html=1;fontSize=40;" parent="omFaNXMol-G434oiKDQh-10" vertex="1">
          <mxGeometry y="30" width="300" height="50" as="geometry" />
        </mxCell>
        <mxCell id="omFaNXMol-G434oiKDQh-13" value="cst_id" style="text;strokeColor=none;fillColor=none;align=left;verticalAlign=middle;spacingLeft=4;spacingRight=4;overflow=hidden;points=[[0,0.5],[1,0.5]];portConstraint=eastwest;rotatable=0;whiteSpace=wrap;html=1;fontSize=40;" parent="omFaNXMol-G434oiKDQh-10" vertex="1">
          <mxGeometry y="80" width="300" height="50" as="geometry" />
        </mxCell>
        <mxCell id="omFaNXMol-G434oiKDQh-35" value="SALES" style="text;strokeColor=#9673a6;fillColor=#e1d5e7;align=center;verticalAlign=middle;spacingLeft=4;spacingRight=4;overflow=hidden;points=[[0,0.5],[1,0.5]];portConstraint=eastwest;rotatable=0;whiteSpace=wrap;html=1;fontSize=30;rounded=0;fontStyle=1" parent="omFaNXMol-G434oiKDQh-10" vertex="1">
          <mxGeometry y="130" width="300" height="50" as="geometry" />
        </mxCell>
        <mxCell id="omFaNXMol-G434oiKDQh-12" value="&lt;font style=&quot;font-size: 20px;&quot;&gt;Transactional Records about Sales &amp;amp; Orders&lt;/font&gt;" style="text;html=1;align=center;verticalAlign=middle;whiteSpace=wrap;rounded=0;" parent="1" vertex="1">
          <mxGeometry x="75" y="410" width="290" height="60" as="geometry" />
        </mxCell>
        <mxCell id="omFaNXMol-G434oiKDQh-14" style="edgeStyle=orthogonalEdgeStyle;rounded=0;orthogonalLoop=1;jettySize=auto;html=1;" parent="1" source="omFaNXMol-G434oiKDQh-13" target="omFaNXMol-G434oiKDQh-3" edge="1">
          <mxGeometry relative="1" as="geometry" />
        </mxCell>
        <mxCell id="omFaNXMol-G434oiKDQh-15" style="edgeStyle=orthogonalEdgeStyle;rounded=0;orthogonalLoop=1;jettySize=auto;html=1;entryX=0;entryY=0.5;entryDx=0;entryDy=0;" parent="1" source="omFaNXMol-G434oiKDQh-11" target="omFaNXMol-G434oiKDQh-8" edge="1">
          <mxGeometry relative="1" as="geometry" />
        </mxCell>
        <mxCell id="omFaNXMol-G434oiKDQh-16" value="erp_cust_az12" style="swimlane;fontStyle=0;childLayout=stackLayout;horizontal=1;startSize=30;horizontalStack=0;resizeParent=1;resizeParentMax=0;resizeLast=0;collapsible=1;marginBottom=0;whiteSpace=wrap;html=1;rounded=1;fillColor=#fff2cc;strokeColor=#d6b656;fontSize=26;" parent="1" vertex="1">
          <mxGeometry x="1110" y="500" width="300" height="130" as="geometry" />
        </mxCell>
        <mxCell id="omFaNXMol-G434oiKDQh-17" value="cid" style="text;strokeColor=none;fillColor=none;align=left;verticalAlign=middle;spacingLeft=4;spacingRight=4;overflow=hidden;points=[[0,0.5],[1,0.5]];portConstraint=eastwest;rotatable=0;whiteSpace=wrap;html=1;fontSize=40;" parent="omFaNXMol-G434oiKDQh-16" vertex="1">
          <mxGeometry y="30" width="300" height="50" as="geometry" />
        </mxCell>
        <mxCell id="omFaNXMol-G434oiKDQh-40" value="CUSTOMER" style="text;strokeColor=#82b366;fillColor=#d5e8d4;align=center;verticalAlign=middle;spacingLeft=4;spacingRight=4;overflow=hidden;points=[[0,0.5],[1,0.5]];portConstraint=eastwest;rotatable=0;whiteSpace=wrap;html=1;fontSize=30;rounded=0;fontStyle=1" parent="omFaNXMol-G434oiKDQh-16" vertex="1">
          <mxGeometry y="80" width="300" height="50" as="geometry" />
        </mxCell>
        <mxCell id="omFaNXMol-G434oiKDQh-18" value="&lt;font style=&quot;font-size: 20px;&quot;&gt;Extra Customer Information (Birthdate)&lt;/font&gt;" style="text;html=1;align=center;verticalAlign=middle;whiteSpace=wrap;rounded=0;" parent="1" vertex="1">
          <mxGeometry x="1070" y="460" width="380" height="40" as="geometry" />
        </mxCell>
        <mxCell id="omFaNXMol-G434oiKDQh-20" style="edgeStyle=orthogonalEdgeStyle;rounded=0;orthogonalLoop=1;jettySize=auto;html=1;entryX=1;entryY=0.5;entryDx=0;entryDy=0;" parent="1" source="omFaNXMol-G434oiKDQh-17" target="omFaNXMol-G434oiKDQh-19" edge="1">
          <mxGeometry relative="1" as="geometry" />
        </mxCell>
        <mxCell id="omFaNXMol-G434oiKDQh-21" value="erp_loc_a101" style="swimlane;fontStyle=0;childLayout=stackLayout;horizontal=1;startSize=30;horizontalStack=0;resizeParent=1;resizeParentMax=0;resizeLast=0;collapsible=1;marginBottom=0;whiteSpace=wrap;html=1;rounded=1;fillColor=#fff2cc;strokeColor=#d6b656;fontSize=26;" parent="1" vertex="1">
          <mxGeometry x="1120" y="700" width="300" height="130" as="geometry" />
        </mxCell>
        <mxCell id="omFaNXMol-G434oiKDQh-22" value="cid" style="text;strokeColor=none;fillColor=none;align=left;verticalAlign=middle;spacingLeft=4;spacingRight=4;overflow=hidden;points=[[0,0.5],[1,0.5]];portConstraint=eastwest;rotatable=0;whiteSpace=wrap;html=1;fontSize=40;" parent="omFaNXMol-G434oiKDQh-21" vertex="1">
          <mxGeometry y="30" width="300" height="50" as="geometry" />
        </mxCell>
        <mxCell id="omFaNXMol-G434oiKDQh-39" value="CUSTOMER" style="text;strokeColor=#82b366;fillColor=#d5e8d4;align=center;verticalAlign=middle;spacingLeft=4;spacingRight=4;overflow=hidden;points=[[0,0.5],[1,0.5]];portConstraint=eastwest;rotatable=0;whiteSpace=wrap;html=1;fontSize=30;rounded=0;fontStyle=1" parent="omFaNXMol-G434oiKDQh-21" vertex="1">
          <mxGeometry y="80" width="300" height="50" as="geometry" />
        </mxCell>
        <mxCell id="omFaNXMol-G434oiKDQh-23" value="&lt;font style=&quot;font-size: 20px;&quot;&gt;Location of Customers (Country)&lt;/font&gt;" style="text;html=1;align=center;verticalAlign=middle;whiteSpace=wrap;rounded=0;" parent="1" vertex="1">
          <mxGeometry x="1080" y="660" width="380" height="40" as="geometry" />
        </mxCell>
        <mxCell id="omFaNXMol-G434oiKDQh-24" style="edgeStyle=orthogonalEdgeStyle;rounded=0;orthogonalLoop=1;jettySize=auto;html=1;entryX=1;entryY=0.5;entryDx=0;entryDy=0;" parent="1" source="omFaNXMol-G434oiKDQh-22" target="omFaNXMol-G434oiKDQh-19" edge="1">
          <mxGeometry relative="1" as="geometry" />
        </mxCell>
        <mxCell id="omFaNXMol-G434oiKDQh-25" value="erp_px_cat_g1v2" style="swimlane;fontStyle=0;childLayout=stackLayout;horizontal=1;startSize=30;horizontalStack=0;resizeParent=1;resizeParentMax=0;resizeLast=0;collapsible=1;marginBottom=0;whiteSpace=wrap;html=1;rounded=1;fillColor=#fff2cc;strokeColor=#d6b656;fontSize=26;" parent="1" vertex="1">
          <mxGeometry x="1110" y="310" width="300" height="130" as="geometry" />
        </mxCell>
        <mxCell id="omFaNXMol-G434oiKDQh-26" value="id" style="text;strokeColor=none;fillColor=none;align=left;verticalAlign=middle;spacingLeft=4;spacingRight=4;overflow=hidden;points=[[0,0.5],[1,0.5]];portConstraint=eastwest;rotatable=0;whiteSpace=wrap;html=1;fontSize=40;" parent="omFaNXMol-G434oiKDQh-25" vertex="1">
          <mxGeometry y="30" width="300" height="50" as="geometry" />
        </mxCell>
        <mxCell id="omFaNXMol-G434oiKDQh-38" value="PRODUCT" style="text;strokeColor=#b85450;fillColor=#f8cecc;align=center;verticalAlign=middle;spacingLeft=4;spacingRight=4;overflow=hidden;points=[[0,0.5],[1,0.5]];portConstraint=eastwest;rotatable=0;whiteSpace=wrap;html=1;fontSize=30;rounded=0;fontStyle=1" parent="omFaNXMol-G434oiKDQh-25" vertex="1">
          <mxGeometry y="80" width="300" height="50" as="geometry" />
        </mxCell>
        <mxCell id="omFaNXMol-G434oiKDQh-27" value="&lt;font style=&quot;font-size: 20px;&quot;&gt;Product Categories&lt;/font&gt;" style="text;html=1;align=center;verticalAlign=middle;whiteSpace=wrap;rounded=0;" parent="1" vertex="1">
          <mxGeometry x="1140" y="270" width="240" height="40" as="geometry" />
        </mxCell>
        <mxCell id="omFaNXMol-G434oiKDQh-28" style="edgeStyle=orthogonalEdgeStyle;rounded=0;orthogonalLoop=1;jettySize=auto;html=1;entryX=1;entryY=0.5;entryDx=0;entryDy=0;" parent="1" source="omFaNXMol-G434oiKDQh-26" target="omFaNXMol-G434oiKDQh-8" edge="1">
          <mxGeometry relative="1" as="geometry" />
        </mxCell>
        <mxCell id="omFaNXMol-G434oiKDQh-32" value="&lt;font&gt;&lt;b&gt;ERP&lt;/b&gt;&lt;/font&gt;" style="rounded=1;whiteSpace=wrap;html=1;fillColor=#fff2cc;strokeColor=#d6b656;fontSize=35;" parent="1" vertex="1">
          <mxGeometry x="1105" y="190" width="330" height="60" as="geometry" />
        </mxCell>
        <mxCell id="omFaNXMol-G434oiKDQh-30" value="&lt;font&gt;&lt;b&gt;CRM&lt;/b&gt;&lt;/font&gt;" style="rounded=1;whiteSpace=wrap;html=1;fillColor=#dae8fc;strokeColor=#6c8ebf;fontSize=35;" parent="1" vertex="1">
          <mxGeometry x="290" y="190" width="330" height="60" as="geometry" />
        </mxCell>
        <mxCell id="omFaNXMol-G434oiKDQh-33" value="&lt;font style=&quot;font-size: 24px;&quot;&gt;Customer Relationship Management&lt;/font&gt;" style="text;html=1;align=center;verticalAlign=middle;whiteSpace=wrap;rounded=0;" parent="1" vertex="1">
          <mxGeometry x="245" y="150" width="420" height="30" as="geometry" />
        </mxCell>
        <mxCell id="omFaNXMol-G434oiKDQh-34" value="&lt;font style=&quot;font-size: 24px;&quot;&gt;Enterprise Resource Planning&lt;/font&gt;" style="text;html=1;align=center;verticalAlign=middle;whiteSpace=wrap;rounded=0;" parent="1" vertex="1">
          <mxGeometry x="1050" y="150" width="420" height="30" as="geometry" />
        </mxCell>
      </root>
    </mxGraphModel>
  </diagram>
</mxfile>
